<svg xmlns="http://www.w3.org/2000/svg" width="24" height="24" viewBox="0 0 24 24" fill="none" stroke="currentColor" stroke-width="2" stroke-linecap="round" stroke-linejoin="round" class="lucide lucide-tags w-5 h-5 text-gray-500 transition duration-75 dark:text-gray-400 group-hover:text-gray-900 dark:group-hover:text-white"> <path d="m15 5 6.3 6.3a2.4 2.4 0 0 1 0 3.4L17 19"></path><path d="M9.586 5.586A2 2 0 0 0 8.172 5H3a1 1 0 0 0-1 1v5.172a2 2 0 0 0 .586 1.414L8.29 18.29a2.426 2.426 0 0 0 3.42 0l3.58-3.58a2.426 2.426 0 0 0 0-3.42z"></path><circle cx="6.5" cy="9.5" r=".5" fill="currentColor"></circle>  </svg>